<svg width="128" height="48" viewBox="0 0 128 48" fill="none" xmlns="http://www.w3.org/2000/svg">
<path d="M80.061 15.7159C79.0141 6.98175 72.2692 3.26033 69.183 2.00453C68.3681 1.67021 67.5197 1.41947 66.6526 1.27321C54.5627 -0.732726 48.9523 8.92082 48.2398 10.2539C48.1959 10.3375 48.2231 10.442 48.3067 10.49L49.5207 11.2109C49.598 11.2569 49.6293 11.3551 49.5917 11.4366C44.9384 21.6397 51.2487 28.6855 53.7582 30.9547C54.2701 31.4144 54.826 31.8323 55.4215 32.1896C66.2054 38.6734 74.7495 30.7144 74.7495 30.7144C82.1108 24.1053 80.061 15.7159 80.061 15.7159ZM52.9935 17.4627C51.6645 20.0872 51.9675 22.4734 51.863 23.0898C51.7648 23.6686 51.3992 23.1608 51.3553 23.0961C51.3532 23.0919 51.3511 23.0877 51.3469 23.0835C50.5926 21.7964 50.7619 18.8293 50.7744 18.6329C50.7744 18.6266 50.7765 18.6203 50.7765 18.612C51.0502 17.0741 51.9069 14.7297 52.6466 13.9879C53.3988 13.2357 53.9128 12.1157 56.7358 10.745C59.5692 9.38469 62.4255 9.58319 65.1231 10.745C67.8206 11.9067 69.86 14.8655 70.071 16.1004C70.2591 17.1953 69.5654 16.4389 69.4191 16.2675C69.4045 16.2508 69.394 16.2341 69.3878 16.2132C69.3543 16.1171 69.0931 15.6741 67.1123 14.1216C64.7908 12.3121 61.6942 11.8002 59.3101 12.4166C56.905 13.0288 54.3224 14.8383 52.9935 17.4627ZM67.2084 23.7835C64.21 27.0097 61.2909 24.6527 61.176 24.5587C61.1739 24.5566 61.1718 24.5545 61.1676 24.5524C58.2256 22.4191 59.8136 19.1302 59.9411 18.8815C59.9453 18.8711 59.9515 18.8627 59.9578 18.8544C61.9324 16.2738 63.9655 16.5872 65.0207 17.0156C65.4595 17.1932 65.846 17.4753 66.172 17.82C68.1069 19.943 66.7508 22.114 66.335 22.6782C66.2765 22.7576 66.2932 22.8683 66.3726 22.9268L67.1833 23.5181C67.269 23.5808 67.2815 23.7041 67.2084 23.7835ZM76.8933 22.745C76.8933 22.745 73.619 32.7642 62.9834 31.6777C62.9834 31.6777 55.971 30.6538 54.8051 23.234C54.8051 23.2298 54.803 23.2235 54.803 23.2193C54.7591 23.0438 53.8878 19.3308 58.2402 16.0043C58.2444 16.0001 58.2507 15.998 58.2548 15.9938C58.3008 15.9666 58.5056 15.8601 58.4137 16.2508C58.3092 16.6896 57.0325 17.0657 56.5206 20.831C56.0086 24.5963 59.1763 26.8342 59.9933 27.3984C60.8082 27.9625 65.9547 30.0019 69.814 26.247C73.5814 22.582 73.0423 17.8597 73.0152 17.6362C73.0152 17.6299 73.0131 17.6257 73.0131 17.6195C73.0068 17.4084 72.8313 13.1145 68.5164 9.59573C64.1661 6.04774 58.8044 7.10085 58.6268 7.13637C58.6247 7.13637 58.6205 7.13846 58.6184 7.13846C58.5077 7.15518 56.3179 7.49995 52.9851 9.67931C52.9538 9.7002 52.912 9.73155 52.8911 9.76289C52.8284 9.85692 52.6299 10.0659 52.2747 9.9196C51.9194 9.77334 51.9926 9.71065 52.4523 9.24051C52.8764 8.80589 53.123 8.53217 53.1585 8.49247C53.1606 8.48829 53.1648 8.4862 53.1669 8.48202C53.3361 8.26262 59.2683 0.692321 69.7618 5.48566C70.023 5.60058 70.2633 5.7364 70.5036 5.89311C72.4677 7.11966 80.1759 12.7049 76.8933 22.745ZM39 37.4928H40.9453C41.0435 37.4928 41.1229 37.5722 41.1229 37.6704V43.5795C41.1229 43.5942 41.125 43.6088 41.1271 43.6213C41.171 43.8031 41.5283 45.0526 42.8363 45.0526C44.2384 45.0526 44.6772 43.8282 44.6772 43.6192V37.6579C44.6772 37.5597 44.7566 37.4803 44.8548 37.4803H46.5703C46.6685 37.4803 46.7479 37.5597 46.7479 37.6579V43.4939C46.7479 43.5774 46.7479 43.661 46.7375 43.7446C46.6539 44.4133 46.1106 46.9666 42.8781 46.9666C39.8651 46.9666 39.1964 44.8228 39.0501 44.0058C39.0188 43.8491 39.0084 43.6924 39.0084 43.5252V37.4907L39 37.4928ZM52.6278 41.979C52.6278 41.979 53.7582 41.4879 53.7582 39.7829C53.7582 38.0779 51.792 37.4823 50.881 37.4823H47.8679C47.7697 37.4823 47.6903 37.5597 47.6903 37.6579C47.6757 38.9555 47.5962 46.9896 47.6924 46.9896H51.3532C51.5099 46.9896 51.6771 46.9687 51.8338 46.9269C52.492 46.7493 54.1134 46.1329 54.1134 44.3234C54.1134 42.0626 52.6278 41.979 52.6278 41.979ZM49.6899 39.4423C49.6899 39.3462 49.7673 39.2668 49.8634 39.2647C50.0953 39.2584 50.5257 39.248 50.9457 39.248C51.3323 39.248 51.8129 39.6345 51.8129 40.2092C51.8129 40.5748 51.6039 40.8151 51.4159 40.9614C51.2383 41.0868 51.0293 41.1494 50.8204 41.1494H49.8696C49.7714 41.1494 49.692 41.07 49.692 40.9718V39.4423H49.6899ZM51.0272 45.2114H49.8655C49.7673 45.2114 49.6879 45.132 49.6879 45.0338V43.1554C49.6879 43.0593 49.7631 42.9819 49.8592 42.9778C50.1246 42.9694 50.6595 42.9527 51.1735 42.9527C51.6332 42.9527 52.2099 43.4124 52.2099 44.104C52.2099 44.5324 51.9696 44.8144 51.7398 44.992C51.5287 45.1383 51.278 45.2114 51.0272 45.2114ZM55.0433 37.4928H56.8005C56.8988 37.4928 56.9782 37.5722 56.9782 37.6704V46.8016C56.9782 46.8998 56.8988 46.9792 56.8005 46.9792H55.0433C54.9451 46.9792 54.8657 46.8998 54.8657 46.8016V37.6704C54.8657 37.5722 54.9451 37.4928 55.0433 37.4928ZM57.5549 45.0526L59.0113 43.9055C59.0948 43.8386 59.2181 43.8616 59.2745 43.9536C59.4981 44.3255 60.0999 45.1571 61.0485 45.1571C62.273 45.1571 62.179 43.9431 62.179 43.9431C62.179 43.9431 62.2103 43.3267 60.6097 42.8336C59.0092 42.3425 57.9853 41.327 58.0584 40.1465C58.1316 38.9743 58.9465 37.7101 60.15 37.4907C61.3181 37.2776 62.8016 37.3006 63.9488 38.8823C64.0073 38.9617 63.9885 39.0725 63.9091 39.131L62.6303 40.065C62.5446 40.1277 62.4234 40.1026 62.3712 40.0107C62.1894 39.6951 61.713 39.0766 60.7978 39.1644C59.5733 39.2793 59.8032 40.2948 60.1291 40.6187C60.4217 40.9112 61.9387 41.4545 62.2834 41.5799C62.3336 41.6008 62.4903 41.6593 62.5488 41.6823C62.553 41.6844 62.5572 41.6864 62.5613 41.6885C62.9145 41.8599 64.1243 42.5599 64.187 43.5378C64.2706 44.71 64.3019 45.7861 62.5655 46.6553C60.827 47.512 58.5683 46.695 57.5549 45.0526ZM80.8257 43.1721H77.0813C76.9831 43.1721 76.9037 43.2515 76.9037 43.3497V46.8016C76.9037 46.8998 76.8243 46.9792 76.7261 46.9792H75.1256C75.0274 46.9792 74.948 46.8998 74.948 46.8016V37.7017C74.948 37.6035 75.0274 37.5241 75.1256 37.5241H81.0556C81.1538 37.5241 81.2332 37.6035 81.2332 37.7017V39.365C81.2332 39.4632 81.1538 39.5426 81.0556 39.5426H77.1022C77.004 39.5426 76.9246 39.622 76.9246 39.7202V41.373C76.9246 41.4712 77.004 41.5506 77.1022 41.5506H80.8257M84.5284 46.7995V39.7599C84.5284 39.6617 84.449 39.5823 84.3508 39.5823H82.1338C82.0356 39.5823 81.9562 39.5029 81.9562 39.4047V37.6997C81.9562 37.6014 82.0356 37.522 82.1338 37.522H89.0166C89.1148 37.522 89.1942 37.6014 89.1942 37.6997V39.4047C89.1942 39.5029 89.1148 39.5823 89.0166 39.5823H86.8707C86.7725 39.5823 86.6931 39.6617 86.6931 39.7599V46.7995C86.6931 46.8977 86.6137 46.9771 86.5155 46.9771H84.706C84.6078 46.9771 84.5284 46.8977 84.5284 46.7995ZM69.6239 37.3026C68.32 37.3026 67.1394 37.8041 66.2723 38.6274C66.1992 38.6964 66.1971 38.8113 66.2681 38.8823L66.2848 38.899C66.3538 38.968 66.3538 39.0829 66.2827 39.1519C65.4156 40.0107 64.9496 41.279 64.9496 42.5954C64.9496 43.0342 65.0123 43.4625 65.1273 43.8721C65.169 44.0183 65.2213 44.1542 65.2944 44.29C66.0989 45.8487 67.7412 46.9144 69.6239 46.9144C72.2274 46.9144 74.2145 44.8959 74.3504 42.3551C74.3504 42.2715 74.3608 42.1984 74.3608 42.1148C74.3504 39.459 72.311 37.3026 69.6239 37.3026ZM69.7388 45.0965C69.4045 45.1279 69.0806 45.107 68.7651 45.0443C67.8457 44.8353 67.1436 44.1562 66.9242 43.2348C66.872 43.0154 66.8407 42.7751 66.8407 42.5452C66.8407 41.7575 67.1478 41.0491 67.6472 40.5163C67.7099 40.4495 67.712 40.345 67.6493 40.276L67.6075 40.2301C67.5406 40.1569 67.549 40.042 67.6242 39.9772C68.1236 39.5468 68.6857 39.2835 69.4149 39.2835C70.3343 39.2835 71.1513 39.5969 71.6946 40.2572C72.1856 40.8423 72.4468 41.6279 72.3528 42.4637C72.2274 43.8303 71.12 44.9482 69.7388 45.0965ZM80.8257 43.0655V41.6739Z" fill="#1C1C1E"/>
</svg>
