<svg width="128" height="48" viewBox="0 0 128 48" fill="none" xmlns="http://www.w3.org/2000/svg">
<path fill-rule="evenodd" clip-rule="evenodd" d="M21.0718 23.5008C21.0718 28.1546 24.8454 31.9282 29.4992 31.9282C34.1529 31.9282 37.9266 28.1546 37.9266 23.5008C37.9266 18.8471 34.1529 15.0734 29.4992 15.0734C24.8454 15.0734 21.0718 18.8454 21.0718 23.5008ZM20 23.5008C20 18.252 24.252 14 29.4992 14C34.7463 14 38.9983 18.2537 38.9983 23.5008C38.9983 28.7463 34.7463 33 29.4992 33C24.2537 33 20 28.7463 20 23.5008ZM32.5272 25.4585C32.5767 25.4206 32.6182 25.3733 32.6494 25.3193C32.7794 25.0927 32.7027 24.8026 32.476 24.671L31.3176 24.0026L30.8426 24.2759V24.8226L32.001 25.4927C32.055 25.5239 32.1145 25.5442 32.1763 25.5523C32.2381 25.5605 32.3009 25.5564 32.3611 25.5403C32.4213 25.5242 32.4778 25.4964 32.5272 25.4585ZM29.4991 24.1309L30.0442 23.8159V23.1858L29.4991 22.8708L28.9541 23.1858V23.8159L29.4991 24.1309ZM29.4975 19.8622C29.2358 19.8622 29.0241 20.0756 29.0241 20.3372V21.6757L29.4991 21.9491L29.9725 21.6757V20.3372C29.9725 20.0739 29.7591 19.8622 29.4975 19.8622ZM26.9972 25.4927L28.1557 24.8243H28.154V24.2759L27.6806 24.0026L26.5222 24.671C26.4682 24.7022 26.421 24.7437 26.383 24.7931C26.3451 24.8426 26.3173 24.899 26.3012 24.9593C26.2851 25.0195 26.2811 25.0822 26.2892 25.144C26.2974 25.2058 26.3176 25.2654 26.3488 25.3193C26.38 25.3733 26.4215 25.4206 26.471 25.4585C26.5205 25.4964 26.5769 25.5242 26.6371 25.5403C26.6973 25.5564 26.7601 25.5605 26.8219 25.5523C26.8837 25.5441 26.9433 25.5239 26.9972 25.4927ZM35.0229 25.7161L36.4031 27.3262C36.4242 27.3494 36.4366 27.3792 36.4381 27.4105C36.4396 27.4419 36.4302 27.4727 36.4114 27.4979C36.3781 27.5529 36.3147 27.5795 36.2547 27.5679L34.1712 27.1778C34.1462 27.1745 34.1212 27.1645 34.0979 27.1512C34.0279 27.1095 33.9845 27.0395 33.9795 26.9628C33.9595 26.7311 33.8312 26.5111 33.6145 26.3861C33.4228 26.2744 33.1994 26.2611 33.0044 26.3294C32.7504 26.4188 32.48 26.452 32.2118 26.427C31.9437 26.402 31.6841 26.3192 31.451 26.1844L30.8342 25.8294V29.8847H29.9642V25.3277L29.4908 25.0543L29.0157 25.3277V29.8847H28.1457V25.8294L27.5273 26.1844C27.0372 26.4694 26.4705 26.5045 25.9755 26.3294C25.7805 26.2611 25.5588 26.2761 25.3654 26.3861C25.1487 26.5111 25.0187 26.7311 25.0004 26.9628C24.9937 27.0395 24.9521 27.1095 24.882 27.1512C24.8587 27.1645 24.8337 27.1728 24.8087 27.1778L22.7252 27.5679C22.6652 27.5795 22.6018 27.5529 22.5702 27.4979C22.5368 27.4395 22.5468 27.3729 22.5868 27.3262L23.967 25.7161C23.9836 25.696 24.0036 25.6794 24.027 25.666C24.097 25.626 24.1803 25.6244 24.2487 25.6577C24.4603 25.7577 24.7137 25.7561 24.9321 25.631C25.024 25.5785 25.1034 25.5066 25.1648 25.4202C25.2261 25.3338 25.2678 25.2352 25.2871 25.131C25.3854 24.6143 25.6971 24.1426 26.1888 23.8592L26.8072 23.5025L23.2952 21.4757L23.7303 20.7223L27.6773 23.0008L28.1507 22.7275V22.1791L24.2037 19.9005L24.6387 19.1471L28.1507 21.174V20.4606C28.1507 19.8939 28.404 19.3855 28.8024 19.0438C28.9591 18.9105 29.0591 18.7104 29.0591 18.4871C29.0591 18.2371 28.9324 18.0137 28.7407 17.882C28.6977 17.8527 28.6656 17.81 28.6494 17.7606C28.6331 17.7112 28.6336 17.6578 28.6507 17.6087L29.3558 15.6085C29.3741 15.5502 29.4291 15.5085 29.4941 15.5085C29.5591 15.5085 29.6141 15.5502 29.6341 15.6085L30.3392 17.6087C30.3459 17.632 30.3509 17.6587 30.3509 17.6853C30.3509 17.767 30.3109 17.8387 30.2475 17.882C30.155 17.9459 30.0784 18.0301 30.0235 18.1283C29.9687 18.2264 29.9372 18.3359 29.9314 18.4481C29.9256 18.5604 29.9457 18.6725 29.9901 18.7758C30.0345 18.8791 30.102 18.9708 30.1875 19.0438C30.5859 19.3855 30.8392 19.8939 30.8392 20.4606V21.174L34.3512 19.1471L34.7863 19.9005L30.8409 22.1791V22.7275L31.3159 23.0008L35.2613 20.7223L35.6963 21.4757L32.1844 23.5025L32.8027 23.8592C33.2945 24.1409 33.6078 24.6143 33.7045 25.131C33.7242 25.235 33.7661 25.3335 33.8274 25.4198C33.8887 25.5061 33.9679 25.5781 34.0595 25.631C34.2762 25.7561 34.5312 25.7577 34.7412 25.6577C34.8096 25.6244 34.8929 25.626 34.9629 25.666C34.9863 25.6794 35.0063 25.696 35.0229 25.7161ZM89.5794 21.5707H92.7497V15.2318H95.7083V31.7682H92.7497V24.5076H89.5794V31.7682H86.6825V15.2318H89.5794V21.5707ZM45.9822 21.674L48.1691 15.2318H50.876L47.544 25.0427V31.7682H44.3271V25.371L41.1135 15.2318H44.0021L45.9822 21.674ZM66.049 15.2318L67.6591 23.0975L69.0459 15.2318H73.758V31.7682H70.7177V19.1271L68.7542 30.1398H66.334L64.1205 19.3038V31.7682H61.5286V15.2318H66.049ZM102.045 17.7687L100.814 25.1643H103.242L102.045 17.7687ZM100.055 15.2318H104.534L107.263 31.7682H104.309L103.687 27.9196H100.354L99.7136 31.7682H97.0334L100.055 15.2318ZM80.0936 17.7687L78.8618 25.1643H81.2903L80.0936 17.7687ZM75.0798 31.7682L78.1034 15.2318H82.5804L85.309 31.7682H82.3571L81.7354 27.9196H78.4017L77.76 31.7682H75.0798ZM54.9397 17.7687L53.7079 25.1643H56.1348L54.9397 17.7687ZM49.9242 31.7682L52.9478 15.2318H57.4249L60.1535 31.7682H57.2015L56.5798 27.9196H53.2462L52.6045 31.7682H49.9242Z" fill="#1C1C1E"/>
</svg>
